<svg width="1020" height="1020" viewBox="0 0 1020 1020" fill="none" xmlns="http://www.w3.org/2000/svg">
<path fill-rule="evenodd" clip-rule="evenodd" d="M510 10C321.45 10 227.15 10 168.6 68.6C115.4 121.75 110.5 204.3 110 360H60C46.7392 360 34.0214 365.268 24.6446 374.644C15.2678 384.022 10 396.74 10 410V460C10 467.762 11.8072 475.418 15.2786 482.36C18.75 489.304 23.7902 495.342 30 500L110 560C110.5 715.7 115.4 798.25 168.6 851.4C180.7 863.55 194.3 873.15 210 880.75V960C210 973.26 215.268 985.978 224.644 995.356C234.022 1004.73 246.74 1010 260 1010H335C348.26 1010 360.978 1004.73 370.356 995.356C379.732 985.978 385 973.26 385 960V909.1C421.35 910 462.7 910 510 910C557.3 910 598.65 910 635 909.1V960C635 973.26 640.268 985.978 649.644 995.356C659.022 1004.73 671.74 1010 685 1010H760C773.26 1010 785.978 1004.73 795.356 995.356C804.732 985.978 810 973.26 810 960V880.75C825.366 873.39 839.368 863.464 851.4 851.4C904.6 798.25 909.55 715.7 910 560L990 500C996.21 495.342 1001.25 489.304 1004.72 482.36C1008.19 475.418 1010 467.762 1010 460V410C1010 396.74 1004.73 384.022 995.356 374.644C985.978 365.268 973.26 360 960 360H910C909.5 204.3 904.6 121.75 851.4 68.6C792.85 10 698.55 10 510 10ZM335 535.775V583.655V673.74V763.825V831.4C335 842.446 343.954 851.4 355 851.4H510H665C676.046 851.4 685 842.446 685 831.4V763.825V575.9V535.775V485.8V435C685 435 834.912 410 834.646 335C834.38 260 835 153.95 813 132C791.1 110 755.75 110 685 110H335C264.3 110 228.95 110 207 132C185 153.9 185.354 264.25 185.354 335C185.354 405.75 335 435 335 435V485.8V535.775Z" fill="#E25353"/>
</svg>
